<svg width="16" height="16" viewBox="0 0 16 16" fill="none" xmlns="http://www.w3.org/2000/svg">
<g clip-path="url(#clip0_282_40126)">
<path d="M10.426 8.50898C11.3813 7.77798 12 6.62965 12 5.33398C12 3.12498 10.209 1.33398 7.99999 1.33398C5.79099 1.33398 3.99999 3.12498 3.99999 5.33398C3.99999 6.62965 4.61866 7.77798 5.57399 8.50898C3.27999 9.51098 1.66666 11.889 1.66666 14.6673H14.3333C14.3333 11.889 12.72 9.51098 10.426 8.50898ZM5.33332 5.33398C5.33332 3.86365 6.52966 2.66732 7.99999 2.66732C9.47032 2.66732 10.6667 3.86365 10.6667 5.33398C10.6667 6.80432 9.47032 8.00065 7.99999 8.00065C6.52966 8.00065 5.33332 6.80432 5.33332 5.33398ZM7.99999 9.33398C10.3257 9.33398 12.2853 11.0363 12.8417 13.334H3.15832C3.71466 11.0363 5.67432 9.33398 7.99999 9.33398Z" fill="white"/>
</g>
<defs>
<clipPath id="clip0_282_40126">
<rect width="16" height="16" fill="white"/>
</clipPath>
</defs>
</svg>
