<svg width="25" height="25" viewBox="0 0 25 25" fill="none" xmlns="http://www.w3.org/2000/svg">
<path d="M22.2505 20.842L16.5865 15.1363C17.9475 13.4903 18.6263 11.379 18.4815 9.24175C18.3366 7.10445 17.3794 5.10567 15.8089 3.66122C14.2384 2.21677 12.1755 1.43786 10.0494 1.48653C7.92333 1.53519 5.89772 2.40768 4.39396 3.9225C2.8902 5.43731 2.02408 7.47782 1.97577 9.61954C1.92746 11.7613 2.70068 13.8393 4.13459 15.4214C5.5685 17.0034 7.55268 17.9677 9.67438 18.1136C11.7961 18.2595 13.8919 17.5757 15.526 16.2046L21.19 21.9103L22.2505 20.842ZM3.50045 9.82205C3.50045 8.47721 3.89633 7.16257 4.63803 6.04438C5.37973 4.92619 6.43394 4.05466 7.66734 3.54001C8.90074 3.02536 10.2579 2.89071 11.5673 3.15307C12.8767 3.41544 14.0794 4.06304 15.0234 5.01399C15.9674 5.96493 16.6103 7.17651 16.8708 8.49551C17.1312 9.81451 16.9975 11.1817 16.4866 12.4242C15.9757 13.6666 15.1106 14.7286 14.0006 15.4757C12.8905 16.2229 11.5855 16.6217 10.2505 16.6217C8.46085 16.6197 6.74512 15.9027 5.47967 14.6279C4.21423 13.3532 3.50244 11.6248 3.50045 9.82205Z" fill="black"/>
</svg>
