<svg width="27" height="18" viewBox="0 0 27 18" fill="none" xmlns="http://www.w3.org/2000/svg">
<g clip-path="url(#clip0_298_14087)">
<path d="M27 4.00001V3.37501C27 2.4799 26.6444 1.62146 26.0115 0.988518C25.3786 0.355581 24.5201 0 23.625 0H3.375C2.47989 0 1.62145 0.355581 0.988514 0.988518C0.355579 1.62146 0 2.4799 0 3.37501V4.00001H27Z" fill="#E6E9EB"/>
<path d="M0 7V14.6667C0 15.5508 0.355579 16.3986 0.988514 17.0238C1.62145 17.6489 2.47989 18.0001 3.375 18.0001H23.625C24.5201 18.0001 25.3786 17.6489 26.0115 17.0238C26.6444 16.3986 27 15.5508 27 14.6667V7H0Z" fill="#E6E9EB"/>
<path d="M27 4H0V7.00001H27V4Z" fill="#687282"/>
<path d="M4 11C4 10.4477 4.44772 10 5 10H21C22.1046 10 23 10.8954 23 12C23 13.1046 22.1046 14 21 14H5C4.44771 14 4 13.5523 4 13V11Z" fill="white"/>
<path d="M21 9.5H19C17.6193 9.5 16.5 10.6193 16.5 12C16.5 13.3807 17.6193 14.5 19 14.5H21C22.3807 14.5 23.5 13.3807 23.5 12C23.5 10.6193 22.3807 9.5 21 9.5Z" stroke="#D10244"/>
</g>
<defs>
<clipPath id="clip0_298_14087">
<rect width="27" height="18" fill="white"/>
</clipPath>
</defs>
</svg>
