<svg width="24" height="24" viewBox="0 0 24 24" fill="none" xmlns="http://www.w3.org/2000/svg">
<path d="M5.11053 13.248C4.93426 13.2483 4.76203 13.3009 4.61562 13.399C4.46922 13.4972 4.35521 13.6366 4.28801 13.7995C4.22081 13.9625 4.20344 14.1417 4.2381 14.3145C4.27276 14.4873 4.35789 14.646 4.48273 14.7705C4.60757 14.8949 4.7665 14.9795 4.93944 15.0137C5.11237 15.0478 5.29154 15.0298 5.45429 14.9621C5.61703 14.8944 5.75604 14.78 5.85374 14.6332C5.95144 14.4865 6.00344 14.3141 6.00316 14.1379C6.00242 13.9016 5.90804 13.6753 5.74072 13.5085C5.5734 13.3417 5.34678 13.248 5.11053 13.248ZM5.11053 14.4691C5.04541 14.4688 4.98184 14.4493 4.92782 14.4129C4.87379 14.3766 4.83174 14.3251 4.80695 14.2648C4.78216 14.2046 4.77574 14.1384 4.78852 14.0746C4.80129 14.0107 4.83267 13.9521 4.87871 13.9061C4.92475 13.86 4.98339 13.8286 5.04724 13.8159C5.11109 13.8031 5.17729 13.8095 5.2375 13.8343C5.29771 13.8591 5.34924 13.9011 5.38559 13.9552C5.42193 14.0092 5.44148 14.0728 5.44175 14.1379C5.4419 14.1814 5.43344 14.2245 5.41684 14.2648C5.40025 14.3051 5.37586 14.3416 5.34507 14.3724C5.31428 14.4032 5.27771 14.4276 5.23746 14.4442C5.1972 14.4608 5.15407 14.4692 5.11053 14.4691Z" fill="black"/>
<path d="M13.9806 13.248C13.8044 13.2483 13.6321 13.3009 13.4857 13.399C13.3393 13.4972 13.2253 13.6366 13.1581 13.7995C13.0909 13.9625 13.0736 14.1417 13.1082 14.3145C13.1429 14.4873 13.228 14.646 13.3528 14.7705C13.4777 14.8949 13.6366 14.9795 13.8096 15.0137C13.9825 15.0478 14.1617 15.0298 14.3244 14.9621C14.4871 14.8944 14.6262 14.78 14.7239 14.6332C14.8216 14.4865 14.8736 14.3141 14.8733 14.1379C14.8725 13.9016 14.7782 13.6753 14.6108 13.5085C14.4435 13.3417 14.2169 13.248 13.9806 13.248ZM13.9806 14.4691C13.9155 14.4688 13.852 14.4493 13.7979 14.4129C13.7439 14.3766 13.7019 14.3251 13.6771 14.2648C13.6523 14.2046 13.6459 14.1384 13.6586 14.0746C13.6714 14.0107 13.7028 13.9521 13.7488 13.9061C13.7949 13.86 13.8535 13.8286 13.9174 13.8159C13.9812 13.8031 14.0474 13.8095 14.1076 13.8343C14.1678 13.8591 14.2194 13.9011 14.2557 13.9552C14.292 14.0092 14.3116 14.0728 14.3119 14.1379C14.312 14.1814 14.3036 14.2245 14.287 14.2648C14.2704 14.3051 14.246 14.3416 14.2152 14.3724C14.1844 14.4032 14.1478 14.4276 14.1076 14.4442C14.0673 14.4608 14.0242 14.4692 13.9806 14.4691Z" fill="black"/>
<path d="M14.7919 7.80526L13.6382 6.58421C13.6119 6.55608 13.5802 6.53361 13.545 6.51816C13.5097 6.50272 13.4717 6.49462 13.4333 6.49438H12.142C12.0676 6.49438 11.9962 6.52396 11.9435 6.5766C11.8909 6.62924 11.8613 6.70064 11.8613 6.77509V8.61088C11.8613 8.68532 11.8909 8.75672 11.9435 8.80936C11.9962 8.862 12.0676 8.89158 12.142 8.89158H14.5869C14.6614 8.89158 14.7328 8.862 14.7854 8.80936C14.8381 8.75672 14.8676 8.68532 14.8676 8.61088V7.99895C14.8673 7.92722 14.8403 7.85819 14.7919 7.80526ZM14.3062 8.33017H12.4227V7.05579H13.3126L14.3062 8.10842V8.33017Z" fill="black"/>
<path d="M17.1778 8.9561L14.2809 5.48382C14.226 5.41787 14.1573 5.36465 14.0798 5.32782C14.0023 5.29098 13.9176 5.27142 13.8318 5.27048H11.2241C11.0687 5.27122 10.9199 5.33327 10.8101 5.44313C10.7002 5.55299 10.6382 5.70178 10.6374 5.85715V9.55118H10.2837V6.77504C10.2837 6.7006 10.2542 6.6292 10.2015 6.57656C10.1489 6.52392 10.0775 6.49434 10.003 6.49434H8.14197V3.7182C8.14197 3.64376 8.1124 3.57236 8.05976 3.51972C8.00712 3.46707 7.93572 3.4375 7.86127 3.4375H4.80443C4.72998 3.4375 4.65859 3.46707 4.60594 3.51972C4.5533 3.57236 4.52373 3.64376 4.52373 3.7182V6.49434H2.66548C2.59104 6.49434 2.51964 6.52392 2.467 6.57656C2.41435 6.6292 2.38478 6.7006 2.38478 6.77504V9.55118H1.5932C1.51876 9.55118 1.44736 9.58076 1.39472 9.6334C1.34207 9.68604 1.3125 9.75744 1.3125 9.83189V12.8887C1.3125 12.9632 1.34207 13.0346 1.39472 13.0872C1.44736 13.1399 1.51876 13.1694 1.5932 13.1694H3.2325C3.08552 13.454 3.00511 13.7683 2.99733 14.0886C2.98956 14.4088 3.05462 14.7266 3.18761 15.018C3.3206 15.3094 3.51804 15.5668 3.76504 15.7708C4.01204 15.9748 4.30214 16.12 4.61344 16.1954C4.92475 16.2709 5.24914 16.2747 5.56212 16.2065C5.8751 16.1383 6.1685 15.9999 6.42019 15.8017C6.67187 15.6036 6.87526 15.3509 7.015 15.0626C7.15475 14.7744 7.2272 14.4582 7.22689 14.1379C7.2265 13.8005 7.14465 13.4683 6.98829 13.1694H12.1027C11.9555 13.4539 11.8749 13.768 11.867 14.0882C11.859 14.4084 11.9239 14.7261 12.0567 15.0175C12.1896 15.3089 12.3869 15.5664 12.6338 15.7704C12.8806 15.9743 13.1706 16.1196 13.4819 16.1951C13.7931 16.2706 14.1174 16.2744 14.4303 16.2062C14.7432 16.1381 15.0366 15.9997 15.2882 15.8015C15.5398 15.6034 15.7431 15.3507 15.8827 15.0625C16.0224 14.7743 16.0947 14.4581 16.0943 14.1379C16.0948 13.8008 16.0139 13.4685 15.8585 13.1694H17.0318C17.1062 13.1694 17.1776 13.1399 17.2303 13.0872C17.2829 13.0346 17.3125 12.9632 17.3125 12.8887V9.33224C17.3123 9.19507 17.2647 9.06218 17.1778 8.9561ZM9.72232 7.05575V9.55118H7.22689V7.05575H9.72232ZM5.08513 3.9989H7.58057V6.49434H5.08513V3.9989ZM6.66548 7.05575V9.55118H6.00303V7.05575H6.66548ZM2.94618 7.05575H5.44162V9.55118H2.94618V7.05575ZM5.11039 15.6929C4.80977 15.6935 4.51548 15.6065 4.26338 15.4427C4.01129 15.2789 3.81228 15.0454 3.6906 14.7705C3.56891 14.4956 3.52981 14.1912 3.57806 13.8945C3.62631 13.5977 3.75982 13.3214 3.96232 13.0993C3.9733 13.0877 3.98361 13.0755 3.9932 13.0628C4.17125 12.8778 4.39237 12.7398 4.63679 12.6612C4.88121 12.5827 5.1413 12.5659 5.39379 12.6124C5.64628 12.659 5.88329 12.7674 6.08361 12.928C6.28394 13.0886 6.44133 13.2963 6.54171 13.5326C6.64208 13.7689 6.68231 14.0264 6.65879 14.2821C6.63527 14.5378 6.54873 14.7836 6.40693 14.9976C6.26512 15.2117 6.07247 15.3872 5.84621 15.5085C5.61995 15.6299 5.36714 15.6932 5.11039 15.6929ZM10.6374 12.608H6.56724C6.17543 12.2331 5.65407 12.0239 5.1118 12.0239C4.56953 12.0239 4.04817 12.2331 3.65636 12.608H1.8739V10.1126H10.6374V12.608ZM13.9806 15.6929C13.6733 15.6932 13.3728 15.6024 13.1172 15.4319C12.8615 15.2614 12.6621 15.0189 12.5443 14.7351C12.4264 14.4513 12.3954 14.139 12.4551 13.8375C12.5147 13.5361 12.6625 13.2591 12.8796 13.0416C13.0966 12.8241 13.3734 12.6759 13.6747 12.6157C13.976 12.5555 14.2884 12.586 14.5724 12.7033C14.8564 12.8206 15.0993 13.0196 15.2702 13.2749C15.4412 13.5303 15.5326 13.8306 15.5329 14.1379C15.5331 14.5499 15.3697 14.9451 15.0786 15.2367C14.7875 15.5283 14.3926 15.6924 13.9806 15.6929ZM16.7511 11.387H16.0886V10.7245H16.7511V11.387ZM16.7511 10.1631H16.0886C15.9399 10.1636 15.7973 10.2228 15.6922 10.328C15.587 10.4332 15.5277 10.5758 15.5272 10.7245V11.387C15.5277 11.5357 15.587 11.6783 15.6922 11.7835C15.7973 11.8886 15.9399 11.9479 16.0886 11.9484H16.7511V12.608H15.4346C15.0433 12.2333 14.5224 12.0242 13.9806 12.0242C13.4388 12.0242 12.9179 12.2333 12.5265 12.608H11.1988V5.85715C11.1994 5.85066 11.2023 5.84459 11.2069 5.83998C11.2115 5.83537 11.2176 5.83251 11.2241 5.83189L13.8486 5.84311L16.7511 9.33224V10.1631Z" fill="black"/>
</svg>
