<svg width="71" height="71" viewBox="0 0 71 71" fill="none" xmlns="http://www.w3.org/2000/svg">
<g clip-path="url(#clip0_1331_11317)">
<mask id="mask0_1331_11317" style="mask-type:alpha" maskUnits="userSpaceOnUse" x="0" y="0" width="71" height="71">
<path d="M35.5 71C55.1061 71 71 55.1061 71 35.5C71 15.8939 55.1061 0 35.5 0C15.8939 0 0 15.8939 0 35.5C0 55.1061 15.8939 71 35.5 71Z" fill="white"/>
</mask>
<g mask="url(#mask0_1331_11317)">
<path d="M73.2191 -1.77539H-0.443359V71.8871H73.2191V-1.77539Z" fill="#D3EFF8"/>
<path fill-rule="evenodd" clip-rule="evenodd" d="M7.09961 40.752H61.1763V47.3657H49.9511H44.8063V45.476L28.9377 45.2399L26.5991 47.3657H14.5217V43.8227H7.09961V40.752Z" fill="#041E42"/>
<path fill-rule="evenodd" clip-rule="evenodd" d="M46.7832 27.1937C46.7832 26.4094 47.4189 25.7737 48.2032 25.7737H56.8205H59.4928C60.0051 25.7737 60.474 26.0512 60.6719 26.5236C61.1469 27.6575 61.9864 30.0953 62.4227 33.9597C62.5394 39.9238 62.5394 45.4202 62.5394 45.4202H57.5207C56.0903 42.5538 53.1623 40.7425 49.9586 40.7425H46.7832V27.1937Z" fill="#BABBBE"/>
<path fill-rule="evenodd" clip-rule="evenodd" d="M49.3105 28.4579C49.3105 27.5124 50.0771 26.7458 51.0226 26.7458H58.2375C58.7961 26.7458 59.3197 27.0203 59.5691 27.5202C59.823 28.0295 60.1427 28.7801 60.4036 29.7423C60.9237 31.6613 60.9818 37.0555 60.9818 37.0555L52.812 34.1377H50.0205C49.6285 34.1377 49.3105 33.8197 49.3105 33.4277V28.4579Z" fill="#041E42"/>
<mask id="mask1_1331_11317" style="mask-type:alpha" maskUnits="userSpaceOnUse" x="49" y="26" width="12" height="12">
<path fill-rule="evenodd" clip-rule="evenodd" d="M49.3105 27.4558C49.3105 27.0638 49.6285 26.7458 50.0205 26.7458H58.2375C58.7961 26.7458 59.3197 27.0203 59.5691 27.5202C59.823 28.0295 60.1427 28.7801 60.4036 29.7423C60.9237 31.6613 60.9818 37.0555 60.9818 37.0555L52.812 34.1377H50.0205C49.6285 34.1377 49.3105 33.8197 49.3105 33.4277V27.4558Z" fill="white"/>
</mask>
<g mask="url(#mask1_1331_11317)">
<path d="M63.3159 24.6052H48.3379V28.1066H63.3159V24.6052Z" fill="#8CD1FC"/>
</g>
<path d="M51.3701 50.9315C53.8947 50.9315 55.9413 48.8849 55.9413 46.3603C55.9413 43.8357 53.8947 41.7891 51.3701 41.7891C48.8454 41.7891 46.7988 43.8357 46.7988 46.3603C46.7988 48.8849 48.8454 50.9315 51.3701 50.9315Z" fill="#002042"/>
<path d="M51.3705 49.3758C53.0357 49.3758 54.3856 48.026 54.3856 46.3608C54.3856 44.6956 53.0357 43.3457 51.3705 43.3457C49.7054 43.3457 48.3555 44.6956 48.3555 46.3608C48.3555 48.026 49.7054 49.3758 51.3705 49.3758Z" fill="#E8E8E8"/>
<path d="M51.3695 47.237C51.8529 47.237 52.2448 46.8451 52.2448 46.3617C52.2448 45.8782 51.8529 45.4863 51.3695 45.4863C50.886 45.4863 50.4941 45.8782 50.4941 46.3617C50.4941 46.8451 50.886 47.237 51.3695 47.237Z" fill="#041E42"/>
<path d="M20.2021 50.9315C22.7267 50.9315 24.7733 48.8849 24.7733 46.3603C24.7733 43.8357 22.7267 41.7891 20.2021 41.7891C17.6775 41.7891 15.6309 43.8357 15.6309 46.3603C15.6309 48.8849 17.6775 50.9315 20.2021 50.9315Z" fill="#041E42"/>
<path d="M20.2006 49.3778C21.8658 49.3778 23.2157 48.0279 23.2157 46.3627C23.2157 44.6975 21.8658 43.3477 20.2006 43.3477C18.5354 43.3477 17.1855 44.6975 17.1855 46.3627C17.1855 48.0279 18.5354 49.3778 20.2006 49.3778Z" fill="#E8E8E8"/>
<path d="M20.2015 47.2351C20.685 47.2351 21.0769 46.8432 21.0769 46.3597C21.0769 45.8763 20.685 45.4844 20.2015 45.4844C19.7181 45.4844 19.3262 45.8763 19.3262 46.3597C19.3262 46.8432 19.7181 47.2351 20.2015 47.2351Z" fill="#041E42"/>
<path d="M52.8119 35.1113H49.3105V36.2785H52.8119V35.1113Z" fill="#002042"/>
<path d="M61.7601 33.166H60.3984V37.8345H61.7601V33.166Z" fill="white"/>
<path d="M61.1777 44.2539H63.901V44.643C63.901 46.1469 62.6818 47.3663 61.1777 47.3663V44.2539Z" fill="#031D43"/>
<path d="M46.7983 35.6914H44.8047V40.8512H46.7983V35.6914Z" fill="#002042"/>
<path d="M45.8092 21.2988H7.09961V40.7508H45.8092V21.2988Z" fill="#0071DC"/>
</g>
</g>
<defs>
<clipPath id="clip0_1331_11317">
<rect width="71" height="71" fill="white"/>
</clipPath>
</defs>
</svg>
