<svg width="16" height="16" viewBox="0 0 16 16" fill="none" xmlns="http://www.w3.org/2000/svg">
<path d="M8.00033 2.66797V5.95002M9.23109 11.2834H11.2824M2.66699 5.95002H13.3337V12.5141C13.3337 12.7317 13.2472 12.9404 13.0933 13.0943C12.9395 13.2482 12.7308 13.3346 12.5131 13.3346H3.48751C3.26989 13.3346 3.06119 13.2482 2.90731 13.0943C2.75344 12.9404 2.66699 12.7317 2.66699 12.5141V5.95002Z" stroke="black" stroke-linecap="round" stroke-linejoin="round"/>
<path d="M2.66699 5.95002L3.89776 3.57874C4.03045 3.31147 4.23349 3.08544 4.48505 2.92497C4.73661 2.76449 5.02716 2.67564 5.32545 2.66797H10.6752C10.9805 2.66813 11.2797 2.75346 11.5392 2.91435C11.7986 3.07525 12.0081 3.30533 12.1439 3.57874L13.3337 5.95002" stroke="black" stroke-linecap="round" stroke-linejoin="round"/>
</svg>
