<svg width="13" height="13" viewBox="0 0 13 13" fill="none" xmlns="http://www.w3.org/2000/svg">
<g clip-path="url(#clip0_1232_8274)">
<path d="M2.23899 11.5869C2.17805 11.9165 2.52024 12.1742 2.8218 12.0272L6.25149 10.3521L9.68039 12.0272C9.98196 12.1742 10.3241 11.9165 10.2632 11.5876L9.61477 8.07559L12.3663 5.58376C12.6241 5.35062 12.4913 4.92442 12.146 4.87839L8.31946 4.36161L6.61321 1.14881C6.5807 1.08369 6.52942 1.02866 6.46532 0.990134C6.40122 0.951605 6.32694 0.931152 6.2511 0.931152C6.17525 0.931152 6.10097 0.951605 6.03687 0.990134C5.97277 1.02866 5.92149 1.08369 5.88899 1.14881L4.18274 4.36235L0.356175 4.87913C0.0116433 4.92517 -0.12195 5.35136 0.135081 5.58451L2.88742 8.07634L2.23899 11.5884V11.5869ZM6.07102 9.53238L3.19133 10.9387L3.73352 8.0006C3.74622 7.93297 3.74125 7.86341 3.71905 7.79803C3.69684 7.73265 3.65808 7.67345 3.60617 7.62564L1.33586 5.56891L4.50149 5.14123C4.56704 5.13183 4.62921 5.10746 4.68268 5.07022C4.73616 5.03297 4.77933 4.98397 4.80852 4.92739L6.24992 2.21133L7.69289 4.92739C7.72208 4.98397 7.76525 5.03297 7.81873 5.07022C7.8722 5.10746 7.93437 5.13183 7.99992 5.14123L11.1655 5.56817L8.89524 7.6249C8.84321 7.67278 8.80438 7.7321 8.78217 7.79763C8.75996 7.86315 8.75506 7.93285 8.76789 8.0006L9.31008 10.9387L6.43039 9.53238C6.37471 9.50509 6.31297 9.49086 6.25031 9.49086C6.18766 9.49086 6.1267 9.50509 6.07102 9.53238Z" fill="black"/>
</g>
<defs>
<clipPath id="clip0_1232_8274">
<rect width="12.5" height="11.88" fill="white" transform="translate(0 0.560059)"/>
</clipPath>
</defs>
</svg>
