<svg width="20" height="20" viewBox="0 0 20 20" fill="none" xmlns="http://www.w3.org/2000/svg">
<path d="M11.8853 19.9955C6.20502 19.9955 6.16129 19.76 5.45785 19.2303C5.08473 18.9496 4.38068 18.7553 1.80912 18.5878C1.62256 18.5756 1.44506 18.504 1.32602 18.3596C1.27133 18.2931 -0.0136719 16.419 -0.0136719 13.4174C-0.0136719 10.4596 0.906016 9.11148 0.945371 9.04898C1.00148 8.95909 1.07954 8.88496 1.17221 8.83357C1.26487 8.78218 1.3691 8.75522 1.47506 8.75523C3.58662 8.75523 6.51381 6.05992 8.48162 1.35492C8.82193 0.541172 8.89225 0.00585938 10.1422 0.00585938C10.8532 0.00585938 11.6501 0.514922 12.0435 1.16807C12.8507 2.50244 12.4407 5.3684 12.0616 6.89996C13.3507 6.88965 15.6841 6.87213 16.7944 6.87213C18.3388 6.87213 19.361 7.79307 19.3919 9.13932C19.4022 9.58369 19.3438 10.1512 19.2153 10.4449C19.5553 10.784 19.9938 11.2953 20.0128 11.9537C20.0366 12.8037 19.48 13.4509 19.1247 13.8221C19.2063 14.0693 19.3694 14.3971 19.3534 14.789C19.3144 15.7528 18.5703 16.3737 18.1069 16.6977C18.1453 16.9615 18.1753 17.459 18.0906 17.8437C17.7563 19.379 15.5047 19.9956 11.8853 19.9956L11.8853 19.9955ZM2.14066 17.3203C4.38066 17.5056 5.57812 17.7565 6.20969 18.2318C6.69844 18.6 6.62313 18.7459 11.8853 18.7459C13.4903 18.7459 16.6294 18.679 16.87 17.5771C16.9656 17.1365 16.501 16.7034 16.4994 16.7C16.3725 16.3869 16.5138 16.0193 16.8231 15.884C16.8281 15.8815 18.0759 15.4347 18.1044 14.7371C18.1231 14.2912 17.8169 14.0234 17.81 14.0121C17.6278 13.7297 17.6944 13.3422 17.9706 13.1496C17.9738 13.1471 18.7822 12.6572 18.7625 11.989C18.7472 11.4584 18.0481 11.085 18.0269 11.0725C17.8706 10.9831 17.7569 10.8284 17.7213 10.6515C17.6863 10.475 17.7256 10.2897 17.8353 10.1462C17.8353 10.1462 18.1531 9.64123 18.1416 9.16748C18.1187 8.15342 17.0281 8.12154 16.7941 8.12154C15.2175 8.12154 11.1685 8.13748 11.1685 8.13748C10.95 8.13842 10.761 8.03529 10.6435 7.86061C10.5263 7.6859 10.5175 7.46904 10.5863 7.27029C11.1969 5.51186 11.5379 2.75311 10.9716 1.81061C10.8047 1.53279 10.7666 1.25529 10.1416 1.25529C10.055 1.25529 9.84879 1.32373 9.63379 1.83623C7.54535 6.83311 4.42598 9.72342 1.87098 9.98404C1.65066 10.4865 1.23629 11.5278 1.23629 13.4171C1.23629 15.3456 1.84721 16.8375 2.14066 17.3203Z" fill="black"/>
</svg>
