<svg width="20" height="20" viewBox="0 0 20 20" fill="none" xmlns="http://www.w3.org/2000/svg">
<path d="M11.8864 0.00394531C6.2061 0.00394531 6.16202 0.239609 5.4586 0.769316C5.08547 1.04994 4.38143 1.24461 1.80956 1.41213C1.62268 1.42432 1.44549 1.49588 1.32643 1.64025C1.27174 1.70682 -0.0132561 3.58088 -0.0132561 6.58211C-0.0132561 9.53992 0.906431 10.8884 0.945787 10.9512C1.00196 11.041 1.08005 11.115 1.1727 11.1664C1.26536 11.2177 1.36955 11.2446 1.47548 11.2446C3.58704 11.2446 6.51422 13.9399 8.48235 18.6452C8.82266 19.459 8.89266 19.994 10.143 19.994C10.8539 19.994 11.6508 19.4849 12.0448 18.8318C12.8517 17.4974 12.442 14.6314 12.0627 13.0999C13.3517 13.1102 15.6852 13.128 16.7955 13.128C18.3398 13.128 19.3617 12.2071 19.3933 10.8605C19.4033 10.4161 19.3452 9.8483 19.2164 9.55518C19.5561 9.21611 19.9948 8.70453 20.0139 8.04609C20.038 7.19641 19.4811 6.54922 19.1261 6.17766C19.2073 5.93047 19.3705 5.60266 19.3548 5.21076C19.3155 4.24703 18.5717 3.62578 18.108 3.30172C18.1461 3.03891 18.1761 2.54109 18.0917 2.15672C17.7573 0.621094 15.5058 0.00390625 11.8864 0.00390625V0.00394531ZM2.14137 2.67992C4.38137 2.49461 5.57879 2.24363 6.21036 1.76801C6.69911 1.4002 6.62348 1.25428 11.8863 1.25428C13.4913 1.25428 16.6304 1.32115 16.871 2.42271C16.9669 2.86334 16.5022 3.29678 16.5004 3.2999C16.3735 3.61334 16.515 3.98053 16.8244 4.11584C16.8294 4.11832 18.0769 4.56553 18.1057 5.26303C18.1241 5.70896 17.8182 5.97678 17.811 5.9877C17.6291 6.2702 17.6957 6.65801 17.9716 6.8502C17.9748 6.8527 18.7835 7.3427 18.7635 8.01113C18.7482 8.54145 18.0491 8.91519 18.0279 8.9277C17.8716 9.01707 17.7579 9.17176 17.7226 9.34895C17.6873 9.52522 17.7269 9.71082 17.8363 9.85363C17.8363 9.85363 18.1541 10.3589 18.1429 10.8324C18.1198 11.8468 17.0291 11.8786 16.7951 11.8786C15.2185 11.8786 11.1695 11.8621 11.1695 11.8621C10.951 11.8614 10.762 11.9646 10.6448 12.1393C10.5276 12.3139 10.5185 12.5312 10.5876 12.7296C11.1979 14.488 11.5389 17.2468 10.9726 18.1893C10.806 18.4671 10.7676 18.7446 10.1426 18.7446C10.056 18.7446 9.84981 18.6762 9.63481 18.1636C7.54512 13.1674 4.42575 10.2768 1.87073 10.0162C1.65042 9.51367 1.23604 8.47242 1.23604 6.58273C1.23667 4.6543 1.8476 3.16273 2.14137 2.67992Z" fill="black"/>
</svg>
