<svg width="50" height="50" viewBox="0 0 50 50" fill="none" xmlns="http://www.w3.org/2000/svg">
<path fill-rule="evenodd" clip-rule="evenodd" d="M44.6996 28.7873H37.1239C36.2875 28.7873 35.6087 29.4661 35.6087 30.3025V36.3631C35.6087 37.201 36.2875 37.8782 37.1239 37.8782H44.6996V45.454C44.6996 46.2919 44.0208 46.9691 43.1845 46.9691H6.82085C5.98448 46.9691 5.30569 46.2919 5.30569 45.454V16.6661H43.1845C44.0208 16.6661 44.6996 17.3434 44.6996 18.1813V28.7873ZM44.6996 33.3328V34.8479H38.639V33.3328V31.8176H44.6996V33.3328ZM41.6693 4.5449V13.6358H12.1239L41.6693 4.5449ZM44.6996 13.6358V3.02975C44.6996 2.19187 44.3421 1.72822 43.5633 1.42064C42.9633 1.18277 42.3799 1.32521 41.6693 1.5146L2.27539 13.6358V46.9691C2.27539 48.6419 3.63297 49.9995 5.30569 49.9995H44.6996C46.3724 49.9995 47.7299 48.6419 47.7299 46.9691V16.6661C47.7299 14.9934 46.3724 13.6358 44.6996 13.6358Z" fill="#2E2F32"/>
</svg>
