<svg width="16" height="20" viewBox="0 0 16 20" fill="none" xmlns="http://www.w3.org/2000/svg">
<path d="M7.293 0.293031C7.48053 0.105559 7.73484 0.000244141 8 0.000244141C8.26516 0.000244141 8.51947 0.105559 8.707 0.293031L11.707 3.29303C11.8892 3.48163 11.99 3.73424 11.9877 3.99643C11.9854 4.25863 11.8802 4.50944 11.6948 4.69485C11.5094 4.88026 11.2586 4.98543 10.9964 4.9877C10.7342 4.98998 10.4816 4.88919 10.293 4.70703L9 3.41403V13C9 13.2652 8.89464 13.5196 8.70711 13.7071C8.51957 13.8947 8.26522 14 8 14C7.73478 14 7.48043 13.8947 7.29289 13.7071C7.10536 13.5196 7 13.2652 7 13V3.41403L5.707 4.70703C5.5184 4.88919 5.2658 4.98998 5.0036 4.9877C4.7414 4.98543 4.49059 4.88026 4.30518 4.69485C4.11977 4.50944 4.0146 4.25863 4.01233 3.99643C4.01005 3.73424 4.11084 3.48163 4.293 3.29303L7.293 0.293031ZM0 9.00003C0 8.4696 0.210714 7.96089 0.585786 7.58582C0.960859 7.21074 1.46957 7.00003 2 7.00003H4C4.26522 7.00003 4.51957 7.10539 4.70711 7.29292C4.89464 7.48046 5 7.73481 5 8.00003C5 8.26525 4.89464 8.5196 4.70711 8.70714C4.51957 8.89467 4.26522 9.00003 4 9.00003H2V18H14V9.00003H12C11.7348 9.00003 11.4804 8.89467 11.2929 8.70714C11.1054 8.5196 11 8.26525 11 8.00003C11 7.73481 11.1054 7.48046 11.2929 7.29292C11.4804 7.10539 11.7348 7.00003 12 7.00003H14C14.5304 7.00003 15.0391 7.21074 15.4142 7.58582C15.7893 7.96089 16 8.4696 16 9.00003V18C16 18.5305 15.7893 19.0392 15.4142 19.4142C15.0391 19.7893 14.5304 20 14 20H2C1.46957 20 0.960859 19.7893 0.585786 19.4142C0.210714 19.0392 0 18.5305 0 18V9.00003Z" fill="#2E2F32"/>
</svg>
